<?xml version="1.0" encoding="UTF-8" standalone="no"?>
<!-- Created with Inkscape (http://www.inkscape.org/) -->

<svg
   xmlns:osb="http://www.openswatchbook.org/uri/2009/osb"
   xmlns:dc="http://purl.org/dc/elements/1.1/"
   xmlns:cc="http://creativecommons.org/ns#"
   xmlns:rdf="http://www.w3.org/1999/02/22-rdf-syntax-ns#"
   xmlns:svg="http://www.w3.org/2000/svg"
   xmlns="http://www.w3.org/2000/svg"
   xmlns:sodipodi="http://sodipodi.sourceforge.net/DTD/sodipodi-0.dtd"
   xmlns:inkscape="http://www.inkscape.org/namespaces/inkscape"
   version="1.1"
   id="svg64"
   width="225"
   height="225"
   viewBox="0 0 225 225"
   sodipodi:docname="artbrasil.jpeg">
  <metadata
     id="metadata70">
    <rdf:RDF>
      <cc:Work
         rdf:about="">
        <dc:format>image/svg+xml</dc:format>
        <dc:type
           rdf:resource="http://purl.org/dc/dcmitype/StillImage" />
      </cc:Work>
    </rdf:RDF>
  </metadata>
  <defs
     id="defs68">
    <linearGradient
       osb:paint="gradient"
       id="linearGradient4598">
      <stop
         id="stop4594"
         offset="0"
         style="stop-color:#000000;stop-opacity:1;" />
      <stop
         id="stop4596"
         offset="1"
         style="stop-color:#000000;stop-opacity:0;" />
    </linearGradient>
    <clipPath
       clipPathUnits="userSpaceOnUse"
       id="clipPath4604">
      <rect
         style="opacity:1;fill:#000000;fill-opacity:1;stroke:#000000;stroke-width:1.85156679;stroke-opacity:1"
         id="rect4606"
         width="13.497631"
         height="9.5354824"
         x="115.19596"
         y="80.96714"
         clip-path="none" />
    </clipPath>
    <clipPath
       clipPathUnits="userSpaceOnUse"
       id="clipPath4628">
      <rect
         style="opacity:1;fill:#000000;fill-opacity:1;stroke:#000000;stroke-width:2.59301257;stroke-opacity:1"
         id="rect4630"
         width="5.8692698"
         height="2.8457019"
         x="117.03072"
         y="86.503922" />
    </clipPath>
  </defs>
  <sodipodi:namedview
     pagecolor="#ffffff"
     bordercolor="#666666"
     borderopacity="1"
     objecttolerance="10"
     gridtolerance="10"
     guidetolerance="10"
     inkscape:pageopacity="0"
     inkscape:pageshadow="2"
     inkscape:window-width="1366"
     inkscape:window-height="704"
     id="namedview66"
     showgrid="false"
     inkscape:zoom="4.3555556"
     inkscape:cx="196.73773"
     inkscape:cy="91.470824"
     inkscape:window-x="0"
     inkscape:window-y="27"
     inkscape:window-maximized="1"
     inkscape:current-layer="svg64" />
  <g
     id="g4680"
     transform="matrix(0.6045653,0,0,1.4809927,102.25059,-108.36197)"
     inkscape:export-filename="/home/camilo/Downloads/g4680.png"
     inkscape:export-xdpi="96"
     inkscape:export-ydpi="96">
    <g
       id="g4653">
      <path
         style="fill:#000000;stroke-width:1.0984273"
         d="m 53.831779,166.17211 c 0,-0.66057 -0.75699,-1.35137 -1.68219,-1.53508 -1.22758,-0.24377 -1.32373,-1.35118 -0.35579,-4.0977 1.25004,-3.54698 1.61315,-3.7712 6.30742,-3.89478 2.73956,-0.0721 3.60536,0.0447 1.92401,0.25958 -4.31034,0.55092 -6.79939,6.64785 -2.95063,7.22762 1.31634,0.1983 1.11952,0.68449 -0.71157,1.75776 -1.96058,1.14917 -2.53125,1.21288 -2.53125,0.2826 z m -92.24057,-1.16745 c -4.47827,-0.27578 -4.67097,-0.42701 -3.80741,-2.98804 1.92157,-5.69875 2.02696,-5.77523 7.57793,-5.49978 5.15548,0.25584 5.21043,0.29813 4.74222,3.65003 -0.58219,4.16786 -2.42115,5.21294 -8.51274,4.83779 z m 4.00542,-3.07285 c 0,-1.12759 0.42226,-2.70568 0.93835,-3.50688 0.65835,-1.02204 0.34139,-1.33818 -1.06221,-1.05946 -2.74689,0.54546 -4.38641,6.6165 -1.78683,6.6165 1.07207,0 1.91069,-0.89983 1.91069,-2.05016 z m -19.31047,-1.50428 c 1.26243,-5.66927 1.42946,-5.7927 7.6535,-5.6559 3.1754,0.0698 4.01304,0.25868 2.11801,0.47762 -3.1569,0.3647 -3.72816,0.99163 -5.38662,5.91147 -0.7891,2.34089 -0.48009,2.73797 2.38426,3.06379 2.06775,0.23522 1.23919,0.41725 -2.22929,0.4898 l -5.52014,0.11545 z m 25.76103,1.22299 c 1.4897,-5.33981 1.40833,-5.29874 10.49856,-5.29874 4.67476,0 8.7885798,0.28613 9.1418398,0.63585 1.44287,1.42843 -1.30399,7.40856 -3.5197498,7.66277 -1.93658,0.22217 -2.12685,-0.27056 -1.23119,-3.18838 0.58265,-1.89814 0.59175,-3.62333 0.0202,-3.83375 -1.62872,-0.59966 -2.85931,0.52388 -2.85931,2.61056 0,2.72406 -1.43762,4.59093 -3.53532,4.59093 -1.30919,0 -1.60197,-1.08701 -1.06176,-3.94212 0.92533,-4.89057 -1.72839,-4.42911 -3.06012,0.53214 -0.60716,2.26195 -1.65006,3.40998 -3.09771,3.40998 -1.73079,0 -1.99886,-0.65788 -1.29545,-3.17924 z m 20.5892398,1.58962 c 0,-3.50299 1.87885,-6.88836 3.82297,-6.88836 1.61606,0 1.84295,0.79878 1.08366,3.81509 -0.62101,2.467 -0.43119,3.8151 0.53717,3.8151 0.82365,0 1.92969998,-1.7168 2.45789998,-3.8151 0.65297002,-2.59396 1.65154002,-3.81509 3.11971002,-3.81509 1.7033,0 1.97304,0.67145 1.27722,3.17924 -0.48516,1.74859 -0.88917,3.65613 -0.89778,4.239 -0.01,0.66961 -2.11131,1.05974 -5.70826,1.05974 -4.61732,0 -5.69259,-0.30026 -5.69259,-1.58962 z m 14.23148,0.0706 c 0,-0.91314 0.40026,-2.85248 0.88947,-4.30964 0.81856,-2.43819 1.34388,-2.64937 6.5903702,-2.64937 h 5.7009 l -0.88211,3.17925 c -0.48517,1.74858 -0.88917,3.65613 -0.89778,4.23899 -0.009,0.58286 -1.049,1.05975 -2.31198,1.05975 -1.91507,0 -2.13687,-0.6334 -1.33595,-3.8151 1.23298,-4.89804 -1.45252,-5.14147 -3.06702,-0.27801 -1.20932,3.64292 -4.6859002,5.55273 -4.6859002,2.57416 z m 13.3420102,-1.13039 c 0.4892,-1.45716 0.88946,-3.3647 0.88946,-4.239 0,-0.87429 0.96063,-1.58962 2.13473,-1.58962 2.30029,0 2.65099,1.64148 1.24525,5.82862 -0.52183,1.55429 -1.77182,2.64937 -3.02419,2.64937 -1.63188,0 -1.9252,-0.62407 -1.24525,-2.64937 z m 5.66834,1.16572 c 0.38567,-0.81601 1.12013,-2.72355 1.63212,-4.23899 0.82061,-2.42894 1.46543,-2.74898 5.44305,-2.70161 4.12908,0.0492 4.2403,0.11883 1.31007,0.82048 -1.78626,0.42772 -3.20208,1.49788 -3.20208,2.42032 0,0.90947 -0.36917,2.22668 -0.82038,2.92715 -0.55492,0.86147 0.25098,1.39521 2.49051,1.64949 2.14015,0.24298 1.38986,0.41672 -2.12183,0.49136 -4.53904,0.0965 -5.31734,-0.12861 -4.73146,-1.3682 z m 10.87575,-0.14258 c 0,-2.91275 1.6628,-4.30834 5.13328,-4.30834 3.94162,0 4.5895,-1.38696 0.91509,-1.95898 -1.36978,-0.21325 -0.40915,-0.43198 2.13473,-0.48607 5.02354,-0.10681 5.46703,0.57348 3.73576,5.73027 -0.81258,2.42033 -1.36622,2.64937 -6.40417,2.64937 -4.48755,0 -5.51469,-0.3029 -5.51469,-1.62625 z m 7.60488,-1.09207 c 0.94179,-2.14543 0.35852,-2.78063 -1.81761,-1.97943 -1.82643,0.67245 -2.04158,3.84996 -0.26066,3.84996 0.69143,0 1.62665,-0.84174 2.07827,-1.87053 z m 17.11478,0.81078 c 0.47197,-1.04915 0.86688,-2.36027 0.87757,-2.91358 0.0114,-0.55332 2.10078,-1.1452 4.64465,-1.31528 l 4.62523,-0.30924 -3.55787,-0.99916 c -3.44189,-0.96661 -3.3955,-0.99282 1.42315,-0.80423 4.40024,0.17222 4.93439,0.44207 4.5811,2.31444 -1.05976,5.61651 -1.46821,5.93459 -7.62049,5.93459 -5.35294,0 -5.76104,-0.15653 -4.97334,-1.90754 z m 7.75592,-1.33811 c 0.25012,-1.01263 -0.23019,-1.84114 -1.06736,-1.84114 -0.83716,0 -1.52213,0.35031 -1.52213,0.77846 0,0.42815 -0.42226,1.43398 -0.93835,2.23518 -0.6586,1.02243 -0.34039,1.33924 1.06736,1.06268 1.10314,-0.21672 2.21036,-1.22255 2.46048,-2.23518 z m 5.96883,0.91421 c 0.0424,-5.08456 1.31876,-6.14654 7.38738,-6.14654 h 5.65171 l -1.00085,3.60314 c -1.32462,4.76889 -1.48027,4.87484 -7.16065,4.87484 -4.39815,0 -4.89504,-0.23751 -4.87759,-2.33144 z m 7.57782,-1.65108 c 0.94448,-3.46723 0.0774,-4.69477 -1.96025,-2.77531 -1.67731,1.57997 -1.77301,5.91004 -0.13064,5.91004 0.6803,0 1.62119,-1.41063 2.09086,-3.13473 z m 12.32681,-1.10427 c 0,-3.95639 0.47438,-5.08679 2.13473,-5.08679 1.59473,0 2.13472,1.00794 2.13472,3.98465 0,4.43377 1.557351,4.13568 4.207891,-0.80541 0.93798,-1.74858 2.28811,-3.17924 3.00026,-3.17924 0.71216,0 -0.29813,2.14577 -2.24508,4.76838 -1.94695,2.62262 -3.53993,4.91167 -3.53993,5.0868 0,0.17512 -1.280831,0.3184 -2.846291,0.3184 -2.53004,0 -2.8463,-0.5652 -2.8463,-5.08679 z m 12.135841,1.48365 c 1.19161,-4.29004 1.68462,-4.87484 4.10958,-4.87484 1.45397,0 1.5472,0.90012 0.439,4.23899 -0.91644,2.76111 -2.12907,4.23899 -3.47819,4.23899 -1.64497,0 -1.86526,-0.74152 -1.07039,-3.60314 z m 6.36508,2.71462 c 0,-0.63361 1.28287,-0.79908 3.55787,-0.45893 2.62551,0.39256 3.55787,0.19447 3.55787,-0.75589 0,-0.7096 -1.24029,-1.28785 -2.7623,-1.28785 -3.48448,0 -4.43432,-0.90435 -3.40723,-3.24407 0.65526,-1.49269 1.85869,-1.84272 6.33551,-1.84272 3.96378,0 5.52661,0.35962 5.52661,1.2717 0,1.53587 -3.73878,1.70255 -4.75408,0.21194 -0.5432,-0.7975 -1.09541,-0.74505 -2.23152,0.21195 -2.3376,1.96908 -1.86261,2.5434 2.10356,2.5434 2.97828,0 3.57246,0.35397 3.20209,1.90755 -0.3653,1.53225 -1.50474,1.95931 -5.79157,2.17068 -3.37481,0.16638 -5.33681,-0.10116 -5.33681,-0.72776 z m 13.5663,-2.29072 c 1.30808,-4.68881 1.7839,-5.29874 4.13372,-5.29874 1.17409,0 1.89002,0.47688 1.59096,1.05975 -0.29907,0.58286 -0.90337,2.29965 -1.34291,3.81509 -0.96791,3.33727 1.56098,3.72112 2.79273,0.4239 1.74587,-4.67347 2.25991,-5.29874 4.3561,-5.29874 1.35143,0 1.87741,0.54439 1.43348,1.48364 -0.38568,0.81601 -1.12014,2.72356 -1.63213,4.239 -0.86225,2.55219 -1.34702,2.75534 -6.5749,2.75534 h -5.644 z m 13.73912,0.4239 c 0.3716,-2.29591 1.09854,-2.80008 4.35961,-3.02361 4.39437,-0.30121 5.21729,-1.52396 1.42315,-2.11462 -1.36978,-0.21325 -0.32536,-0.43198 2.32093,-0.48607 4.78806,-0.0979 4.80715,-0.0829 3.92932,3.0809 -0.48516,1.74859 -0.88917,3.65613 -0.89778,4.239 -0.01,0.67239 -2.12934,1.05974 -5.79843,1.05974 -5.66684,0 -5.77382,-0.0552 -5.3368,-2.75534 z m 6.85012,-0.26199 c 0,-1.23046 -0.61599,-1.94273 -1.42315,-1.64556 -0.78273,0.28818 -1.42314,1.26448 -1.42314,2.16954 0,0.90505 0.64041,1.64556 1.42314,1.64556 0.78274,0 1.42315,-0.9763 1.42315,-2.16954 z m 6.2043,1.53369 c 0.38694,-0.81601 1.1268,-3.10507 1.64415,-5.0868 0.59348,-2.27337 1.6823,-3.60314 2.95025,-3.60314 2.41432,0 2.4461,0.39973 0.46856,5.89286 -1.01082,2.80778 -2.26803,4.28072 -3.65377,4.28072 -1.33134,0 -1.85252,-0.54871 -1.40919,-1.48364 z M 23.678839,154.92482 c 1.02733,-0.2449 2.25479,-0.21479 2.7277,0.0669 0.4729,0.28172 -0.36765,0.48209 -1.86788,0.44528 -1.65789,-0.0407 -1.99511,-0.24157 -0.85982,-0.51221 z m 43.46463,-0.003 c 1.41838,-0.84496 6.61535,-0.95408 5.7508,-0.12075 -0.40126,0.38677 -2.07933,0.70322 -3.72905,0.70322 -1.64972,0 -2.55951,-0.26211 -2.02175,-0.58247 z m 43.347371,0.003 c 1.02732,-0.2449 2.25479,-0.21479 2.7277,0.0669 0.4729,0.28172 -0.36765,0.48209 -1.86788,0.44528 -1.6579,-0.0407 -1.99511,-0.24157 -0.85982,-0.51221 z m -245.80232,-6.13548 c -1.09965,-0.41472 -1.94469,-1.89958 -1.87787,-3.29966 0.13533,-2.83549 26.52744,-34.74302 30.08796,-36.37574 2.9127,-1.33566 10.446149,-1.37699 12.641199,-0.0694 0.97893,0.58317 1.71079,3.38731 1.71484,6.57044 l 0.007,5.55308 3.54543,-2.5434 3.54543,-2.54339 2.85631,2.00488 c 2.58201,1.81236 3.59441,1.94995 10.54225,1.43282 4.89591,-0.3644 8.02437,-0.24586 8.61823,0.32656 0.51271,0.49425 2.57554,0.89863 4.58401,0.89863 3.23965,0 3.56193,-0.26763 2.85564,-2.37137 -0.99394,-2.96055 0.11464,-4.05688 5.28664,-5.2283 3.26386,-0.73924 4.78147,-0.64831 7.61076,0.45606 3.03757,1.18565 3.42942,1.8438 2.78962,4.68541 -0.7173,3.18583 -0.59409,3.306 3.38967,3.306 3.56636,0 4.13103,0.32014 4.11223,2.33144 -0.0295,3.15175 -1.58874,4.40071 -6.46377,5.1774 -3.61941,0.57664 -4.29821,1.21945 -5.70472,5.40218 l -1.59648,4.74764 3.91179,-1.72288 c 9.4233,-4.15036 9.5693,2.86807 0.18436,8.86233 -4.82347,3.0808 -13.5473,3.31094 -16.06875,0.4239 -2.45719,-2.81346 -2.4129,-2.81041 -6.63209,-0.45733 -5.68412,3.17007 -9.20086,3.54925 -13.63723,1.4704 -4.6041,-2.15746 -4.76526,-4.26787 -0.93519,-12.2464 3.54855,-7.39208 3.52912,-7.55422 -0.40642,-3.3912 -1.76324,1.86516 -4.63458,3.7678 -6.38075,4.22809 -3.81944,1.00679 -4.32616,5.01292 -0.99268,7.84809 2.00191,1.70264 1.94312,1.99837 -0.71158,3.57983 -2.89394,1.72398 -9.22721,2.26376 -12.410959,1.05779 -2.44226,-0.92512 -4.71426,-4.9209 -4.71426,-8.291 0,-2.83812 -0.1464,-2.9121 -5.76217,-2.9121 -5.3996,0 -5.93493,0.22671 -8.50763,3.60314 -1.51001,1.98173 -2.75953,4.42073 -2.77672,5.41999 -0.0452,2.62784 -7.84944,3.897 -12.70422,2.06602 z m 9.1151,-1.5644 c 0.78273,-0.34258 1.64999,-1.57439 1.92724,-2.73738 0.27726,-1.16298 1.73121,-3.54741 3.23101,-5.29874 2.59547,-3.03075 3.06538,-3.18423 9.74923,-3.18423 7.01653,0 7.02302,0.003 7.86269,3.17924 1.85245,7.00815 2.80212,8.25761 6.449649,8.48566 6.02193,0.37652 7.72781,-0.86467 5.71147,-4.15562 -0.95918,-1.56552 -2.09341,-8.95054 -2.5205,-16.41117 -0.4271,-7.46063 -1.31413,-14.42318 -1.97118,-15.47233 -1.19952,-1.91534 -5.927309,-2.55689 -9.275909,-1.25871 -2.69805,1.04597 -30.64473,35.07352 -29.83638,36.32843 0.80032,1.24243 6.276,1.5738 8.67268,0.52485 z m 10.75782,-16.09519 c 0.0463,-0.34972 2.55248,-3.68793 5.56923,-7.41825 l 5.48501,-6.78239 0.12336,7.41824 0.12336,7.41825 h -5.69259 c -3.13092,0 -5.65469,-0.28614 -5.60837,-0.63585 z m 8.40424,-3.8151 -0.0504,-2.75535 -2.03386,2.1195 c -2.62015,2.73047 -2.62015,3.3912 0,3.3912 1.46998,0 2.11902,-0.858 2.08429,-2.75535 z m 44.696679,14.20062 c 3.35886,-3.8387 1.72839,-4.98375 -2.71621,-1.90754 -5.86382,4.05849 -5.90446,3.19477 -0.39323,-8.3569 2.81272,-5.89552 2.95001,-6.00522 6.36646,-5.08679 2.89327,0.77778 3.36064,1.37459 2.72683,3.48206 -0.4207,1.39887 -1.18877,5.30011 -1.70681,8.66944 -1.07,6.9592 0.25819,8.71043 6.60629,8.71043 4.67096,0 12.7815,-4.96113 12.7815,-7.8183 0,-1.75998 -0.1416,-1.7439 -3.99153,0.4534 -2.19534,1.25296 -4.52803,2.27811 -5.18375,2.27811 -0.65573,0 -0.7889,-2.29875 -0.29596,-5.10833 1.47197,-8.38955 2.06317,-9.17632 7.11489,-9.46844 3.40917,-0.19715 4.60062,-0.71924 4.94584,-2.16726 0.38853,-1.6297 -0.19423,-1.90755 -4.00086,-1.90755 h -4.45562 l 0.9579,-3.80532 c 1.06696,-4.23853 -0.66927,-5.29913 -7.10065,-4.33753 -2.9788,0.44538 -3.37014,0.90389 -2.79151,3.27068 0.94699,3.87348 -0.91996,5.18439 -6.36818,4.47154 -2.44598,-0.32004 -4.44723,-0.93575 -4.44723,-1.36824 0,-0.46092 -4.12289,-0.55809 -9.96203,-0.2348 -8.66875,0.47996 -9.96203,0.37067 -9.96203,-0.84188 0,-2.12642 -2.70308,-1.66047 -4.57643,0.78887 -1.28209,1.67629 -1.27502,2.55826 0.0305,3.80359 2.25983,2.15567 2.13082,4.099 -0.46932,7.06917 -1.18327,1.35167 -1.78902,2.67346 -1.34612,2.93731 1.61932,0.96466 5.72124,-1.34167 8.49608,-4.77697 2.01999,-2.50078 3.74186,-3.5327 5.93114,-3.55449 l 3.08484,-0.0307 -3.62082,7.99258 c -3.80554,8.40031 -3.61937,11.98027 0.65419,12.57965 3.83,0.53717 10.73354,-2.35485 13.69182,-5.73576 z m 2.93185,-9.96162 c 1.32813,-4.50208 -1.30687,-3.98864 -4.03832,0.78687 -2.95787,5.17138 -2.86219,6.10625 0.41596,4.06442 1.47646,-0.91963 3.10652,-3.10271 3.62236,-4.85129 z m -30.98095,-4.239 c -0.3948,-0.58286 -0.71782,-0.10597 -0.71782,1.05975 0,1.16572 0.32302,1.64261 0.71782,1.05975 0.39479,-0.58286 0.39479,-1.53664 0,-2.1195 z m 76.65182,20.42302 c -4.58512,-2.14856 -4.52401,-3.18166 1.167,-19.73078 2.6448698,-7.69112 3.1023898,-10.47661 1.90796,-11.61598 -3.73536,-3.56316 2.9309898,-8.01628 12.5468498,-8.38129 13.4678902,-0.51123 17.9717402,-0.004 22.1682602,2.49579 2.53124,1.50791 4.15997,3.36906 4.15997,4.7536 0,1.65548 0.57098,2.14489 2.09577,1.79632 1.19889,-0.27406 2.98945,0.28098 4.18401,1.29697 1.83847,1.56363 2.9693,1.70643 9.45474,1.19392 5.90111,-0.46634 7.89982,-0.29462 10.04746,0.86322 3.4037,1.835 3.37446,3.95256 -0.14696,10.64478 -3.30999,6.29037 -3.16555,5.79817 -1.70141,5.79817 0.63979,0 2.29045,-2.13024 3.66814,-4.73386 1.74027,-3.28884 4.53473,-5.98398 9.15458,-8.8292 l 6.64967,-4.09532 10.31707,0.0455 c 5.83506,0.0257 11.36423,0.5016 12.7275,1.09545 2.26372,0.98608 2.25945,1.43047 -0.0702,7.30009 -1.3643,3.43754 -2.82798,6.94767 -3.25262,7.80028 -0.60818,1.22111 -0.10075,1.49107 2.39054,1.2717 3.07146,-0.27047 4.59652,0.6511 6.2032,3.74854 0.861161,1.66017 5.128371,2.05081 5.128371,0.46947 0,-0.5578 -1.62699,-2.41278 -3.61552,-4.12218 -7.731011,-6.64576 -5.275771,-14.04129 5.64228,-16.99534 7.0735,-1.91383 11.28416,-2.01732 13.62793,-0.33497 3.0299,2.17486 3.75191,1.4481 4.00081,-4.02704 0.28294,-6.22401 2.07283,-7.41824 11.11834,-7.41824 8.95461,0 9.67599,2.51948 2.67014,9.32578 -2.17585,2.11389 -2.89571,3.94262 -2.50292,6.35849 0.30324,1.86516 -0.39367,5.77564 -1.5487,8.68994 -1.16872,2.94885 -1.51137,5.29875 -0.77261,5.29875 2.04448,0 3.73145,-2.98125 7.55542,-13.35208 1.93407,-5.24534 4.35698,-10.58648 5.38422,-11.86918 2.28772,-2.85667 8.26617,-3.50063 13.50716,-1.45491 3.37769,1.31842 3.58955,1.76873 2.84742,6.05229 -0.44524,2.56988 -3.01224,7.5248 -5.77248,11.14224 -7.50081,9.83017 -8.17883,13.79929 -1.61969,9.48164 5.75302,-3.78701 9.29578,-0.79939 5.00016,4.21663 -5.10923,5.9661 -15.51255,8.95122 -21.36191,6.12957 -3.21162,-1.54924 -3.5828,-1.55842 -7.73733,-0.19144 -2.40012,0.78972 -5.16439,1.35547 -6.1428,1.25722 -0.97841,-0.0983 -2.43308,-0.22634 -3.23259,-0.28463 -0.79951,-0.0582 -2.17341,-1.04701 -3.0531,-2.19717 l -1.59943,-2.0912 -4.02855,2.01938 c -5.58004,2.79708 -11.60529,3.4412 -17.051001,1.82282 -3.93083,-1.16818 -4.78456,-1.17572 -7.44471,-0.0658 -4.1968,1.75116 -6.22758,1.577 -10.36722,-0.88907 l -3.59702,-2.14282 -4.27479,2.14282 c -2.35115,1.17855 -5.2284,2.14282 -6.3939,2.14282 -2.8692,0 -7.95231,-1.67475 -10.06981,-3.31773 -0.95351,-0.73984 -1.75403,-0.91175 -1.77893,-0.38202 -0.0249,0.52973 -2.32531,1.60769 -5.11205,2.39547 -4.56335,1.29001 -5.39443,1.30444 -8.36409,0.14528 -4.98513,-1.94585 -5.54103,-4.97557 -2.2315,-12.16194 1.62213,-3.52235 2.60769,-6.60779 2.19013,-6.85655 -0.41757,-0.24871 -0.75923,0.0522 -0.75923,0.66878 0,1.64623 -6.94626,6.79177 -9.16859,6.79177 -1.04942,0 -2.34024,1.02588 -2.8685,2.27974 -2.68956,6.38377 -13.31403,10.43724 -27.3568602,10.43724 -6.66751,0 -9.4908198,-0.41312 -12.5181198,-1.8317 z m 25.91023,-1.52882 c 6.38657,-1.7271 11.75601,-5.90055 11.76505,-9.14451 0.004,-1.28048 0.85944,-1.90755 2.60355,-1.90755 3.33242,0 8.30746,-3.17038 9.51135,-6.06118 0.61478,-1.47626 2.11427,-2.38033 4.37494,-2.63778 4.14624,-0.47217 4.14571,-0.47714 0.65681,6.27821 -1.53051,2.96343 -3.19994,6.9593 -3.70983,8.8797 -0.79927,3.01022 -0.48335,3.67683 2.29119,4.83453 3.76703,1.57183 7.41861,0.81099 12.16749,-2.53522 l 2.98509,-2.10339 1.79319,2.57896 c 3.27366,4.70816 10.38605,4.14775 17.49749,-1.3787 l 3.91365,-3.04138 v 2.40121 c 0,2.46332 3.49103,5.51677 6.26896,5.48317 0.85709,-0.0103 3.11747,-0.73276 5.02307,-1.60531 3.39728,-1.55558 3.5414,-1.55268 7.40499,0.14898 3.623161,1.59578 4.362811,1.63964 9.190761,0.54498 10.68203,-2.42197 14.87896,-10.37627 8.30638,-15.7428 -4.31175,-3.52055 -4.91993,-5.01898 -2.74825,-6.77101 1.5357,-1.23895 2.31082,-1.34891 3.7109,-0.52648 2.05182,1.20529 5.53762,-0.0481 5.53762,-1.99118 0,-1.11204 -2.4391,-1.53375 -7.11574,-1.23026 -11.01056,0.71453 -17.529181,7.24633 -12.43156,12.45669 5.94498,6.07648 6.80445,7.34216 6.00483,8.84302 -1.00264,1.8819 -6.62508,2.2561 -8.917271,0.59348 -0.80357,-0.58286 -1.68251,-1.98951 -1.95319,-3.12589 -0.45936,-1.92848 -0.64961,-1.97186 -2.85559,-0.65099 -1.2999,0.77833 -2.65316,1.89885 -3.00725,2.49004 -0.35409,0.59119 -1.17395,0.7795 -1.82193,0.41847 -1.4278,-0.79553 1.74413,-12.67827 4.40257,-16.49299 2.38237,-3.41858 1.41312,-3.83573 -9.71368,-4.1807 -8.86456,-0.27483 -12.76309,0.51368 -17.00226,3.43886 -3.74157,2.58181 -9.63057,9.51975 -9.63057,11.34596 0,0.86084 -1.92125,2.66169 -4.26944,4.00189 l -4.26944,2.43673 0.0114,-2.49006 c 0.005,-1.36954 1.2814,-4.96987 2.83491,-8.00075 3.25115,-6.343 3.61101,-9.86025 1.06736,-10.43251 -0.97841,-0.22012 -5.78153,-0.19675 -10.6736,0.0519 -7.61289,0.387 -8.89468,0.25123 -8.89468,-0.94213 0,-2.12715 -2.70274,-1.66176 -4.57642,0.78802 -1.28209,1.67628 -1.27502,2.55825 0.0305,3.80359 2.14382,2.045 2.15941,4.35454 0.048,7.11509 -2.07808,2.71702 -3.48801,2.73955 -4.61117,0.0737 -0.4833,-1.14714 -2.42719,-2.76856 -4.31975,-3.60315 l -3.44101,-1.51744 4.94336,-3.04351 c 3.92714,-2.41784 4.99322,-3.78855 5.18596,-6.66785 0.2013,-3.00708 -0.42946,-3.96875 -3.70354,-5.64644 -3.25464,-1.66779 -5.51564,-2.02207 -12.9047602,-2.02207 -11.98522,0 -17.92235,1.2679 -17.92235,3.82738 0,1.08125 0.64675,2.09434 1.43722,2.25131 1.27607,0.25339 -1.048,9.22867 -5.7802498,22.32258 -1.80908,5.00565 -1.6061,6.93234 0.88681,8.41742 3.2002098,1.90644 16.8247098,1.72082 24.41824,-0.33266 z m -14.7778802,-3.88163 c -0.8602,-1.33538 0.3798,-8.71853 1.84674998,-10.99585 0.84344,-1.30939 7.16596002,-1.70054 9.90119002,-0.61254 5.6798102,2.25928 5.7978902,9.28217 0.19536,11.61988 -4.03408,1.68327 -10.85585,1.67669 -11.9433,-0.0115 z m 10.89363,-2.08364 c 4.1673902,-2.4826 3.7743102,-6.56684 -0.75019,-7.79492 -2.30828,-0.62654 -4.08789,-0.68344 -4.96847,-0.15885 -1.63265002,0.9726 -4.1888,8.55148 -3.10246002,9.19864 1.66042002,0.98915 6.12977002,0.35842 8.82112002,-1.24487 z m 58.7050902,-3.24062 c 1.31426,-8.63437 8.63063,-14.51278 13.61229,-10.93693 2.69422,1.9339 -8.58121,15.87315 -12.83975,15.87315 -0.99465,0 -1.26296,-1.71437 -0.77254,-4.93622 z m 9.4219,-5.38269 c 2.62863,-3.74519 2.62461,-4.94147 -0.0166,-4.94147 -1.87288,0 -5.49241,4.81414 -6.8326,9.08768 l -1.24742,3.97767 2.65845,-2.08172 c 1.46214,-1.14496 3.9093,-3.86393 5.43813,-6.04216 z M 1.7599788,123.71092 c 0.49125,-1.16604 1.28814,-3.83661 1.77086,-5.93459 0.74866,-3.25386 1.35505,-3.81451 4.12569,-3.81451 6.2195802,0 7.7502602,0.86273 7.7502602,4.36823 0,4.01987 -4.99503,7.50095 -10.7631902,7.50095 -3.31827,0 -3.66839002,-0.25741 -2.88362,-2.12008 z m 10.8287302,-3.4348 c 1.67562,-2.62548 0.40555,-4.6187 -2.9430202,-4.6187 -1.92275,0 -2.9451,0.94903 -3.88146,3.60314 -0.69915,1.98173 -1.01818,3.89031 -0.70895,4.24129 0.99079,1.12458 6.1732102,-1.09447 7.5334302,-3.22573 z m 121.667771,24.0399 c 2.91735,-2.0654 3.541,-2.2267 3.541,-0.91585 0,5.90864 14.97548,4.21169 20.66407,-2.34155 3.04843,-3.51177 2.66335,-3.69784 -2.65327,-1.28208 -2.61777,1.18945 -5.5072,2.16264 -6.42099,2.16264 -2.76899,0 -0.33937,-6.57964 5.14897,-13.94386 5.61461,-7.53367 7.36356,-13.32757 4.61797,-15.29836 -2.16008,-1.5505 -7.6669,-1.67572 -9.62205,-0.21879 -1.4482,1.07917 -8.88841,18.76419 -8.88841,21.12733 0,1.79016 -8.34789,8.50406 -9.87476,7.94191 -1.49912,-0.55194 -0.53658,-5.88039 2.28747,-12.66301 1.83441,-4.40575 1.83132,-5.1501 -0.0259,-6.25646 -1.37331,-0.81811 -3.38996,-1.06409 -5.78629,-0.7058 -3.00559,0.44939 -3.67868,1.05094 -3.68028,3.28916 -10e-4,1.50656 -0.94911,5.94546 -2.10678,9.86421 -2.23557,7.56756 -1.77491,10.67257 1.75814,11.85043 3.26921,1.0899 7.09127,0.18643 11.04106,-2.60992 z m 18.27674,-18.27307 c 0.38283,-0.81601 1.74472,-3.71833 3.02642,-6.44962 1.28169,-2.73128 2.68537,-4.75447 3.11928,-4.49598 0.90313,0.53801 -4.90914,12.42925 -6.07526,12.42925 -0.42157,0 -0.45328,-0.66764 -0.0704,-1.48365 z m -31.83813,2.33145 c 0.0157,-1.75394 -0.71863,-2.15025 -4.25762,-2.29778 l -4.27658,-0.17829 3.18795,3.29981 c 3.34223,3.45952 5.31064,3.15623 5.34625,-0.82374 z m -93.924901,0.21195 c -0.0376,-2.5629 -2.43659,-4.17336 -4.4394,-2.98025 -1.36245,0.81165 -1.17565,1.39979 0.87289,2.74827 3.18344,2.09554 3.59427,2.12227 3.56651,0.23198 z M 136.18281,116.66547 c 1.56671,-1.31073 3.28079,-3.40904 3.80905,-4.66289 0.90035,-2.13703 0.66129,-2.27892 -3.81903,-2.26675 -2.62874,0.007 -5.48766,0.29327 -6.35317,0.63585 -1.88445,0.74588 -3.90654,6.66211 -2.68083,7.84357 1.6574,1.59756 6.21561,0.81646 9.04398,-1.54978 z"
         id="path4650"
         inkscape:connector-curvature="0"
         sodipodi:nodetypes="scscccsscscscsccssccccccccsccccssccsccsscsssccssscscccscsssccscsccsccsccccsccscssccsccsscccsscscsccsccccsccssccscscscssscscscscsssssccsccscccccsccscccsccccscsssssscscsscccccccsccccccccscccccsscsssssscccccssccssccscssccccccssccccsscccccccscccssccccssccsscscccsccssssssccccsccssccccsccccccccscsccsccssccscccccsccsssccsscssccscsscccccscsccscsscccsscsccccsccsccscsscscccssscsscccccscsscsscccccscscccccccsscsccccsscccscccsccsccccccccccsssccccccccccsscssccccccsccccsscccccccccsccccsccc" />
    </g>
    <path
       sodipodi:nodetypes="ccccc"
       inkscape:connector-curvature="0"
       id="path4667"
       d="m -55.561223,169.09438 -6.772959,2.41071 c -11.982213,5.00305 -25.030215,9.37114 -33.290816,-1.60714 -1.394245,-4.21828 -1.030214,-6.27798 2.181122,-8.95409 17.474577,10.31965 21.112134,9.2219 37.538265,8.4949"
       style="fill:#0096d0;fill-opacity:1;stroke:none;stroke-width:1px;stroke-linecap:butt;stroke-linejoin:miter;stroke-opacity:1" />
    <path
       sodipodi:nodetypes="ccccc"
       inkscape:connector-curvature="0"
       id="path4671"
       d="m -82.538265,154.2857 c 3.174842,1.55121 6.191,0.72216 9.642857,6.42858 3.242609,4.51817 8.089534,7.03094 13.775509,8.49489 -7.186907,1.26428 -14.275277,2.18084 -24.107142,-1.60714 -18.654349,-6.00166 -8.300433,-14.48553 0.688776,-13.31633 z"
       style="fill:#f62793;fill-opacity:1;stroke:none;stroke-width:1px;stroke-linecap:butt;stroke-linejoin:miter;stroke-opacity:1" />
    <path
       sodipodi:nodetypes="cccccc"
       inkscape:connector-curvature="0"
       id="path4673"
       d="m -74.732143,156.92601 c 3.828062,-5.077 8.434295,-4.09086 13.316326,-2.41071 2.386595,1.80664 2.377276,3.47857 2.640306,5.16581 -3.764962,6.12105 0.04133,7.32256 2.8699,9.75765 l -2.29592,-0.22958 c -5.56772,-0.29994 -18.297166,-7.25573 -16.530612,-12.28317 z"
       style="fill:#e1d80d;fill-opacity:1;stroke:none;stroke-width:1px;stroke-linecap:butt;stroke-linejoin:miter;stroke-opacity:1" />
  </g>
</svg>
